<svg width="1100" height="280" viewBox="0 0 1100 280" fill="none" xmlns="http://www.w3.org/2000/svg" role="img" aria-label="Digital Library Lobby banner">
  <defs>
    <linearGradient id="bg" x1="0" y1="0" x2="1" y2="1">
      <stop offset="0" stop-color="#fff6e8"/>
      <stop offset="1" stop-color="#e6d2b8"/>
    </linearGradient>
    <linearGradient id="floor" x1="0" y1="0" x2="1" y2="0">
      <stop offset="0" stop-color="#6c442e"/>
      <stop offset="1" stop-color="#2f261f"/>
    </linearGradient>
  </defs>
  <rect width="1100" height="280" rx="28" fill="url(#bg)"/>
  <rect x="28" y="34" width="256" height="184" rx="20" fill="#6c442e"/>
  <rect x="56" y="62" width="38" height="130" rx="6" fill="#7d3345"/>
  <rect x="104" y="78" width="32" height="114" rx="6" fill="#405f8f"/>
  <rect x="146" y="54" width="44" height="138" rx="6" fill="#4a6b59"/>
  <rect x="202" y="96" width="52" height="96" rx="6" fill="#c89b3c"/>
  <line x1="44" y1="202" x2="268" y2="202" stroke="#fff8ef" stroke-opacity="0.5" stroke-width="8" stroke-linecap="round"/>
  <rect x="366" y="58" width="118" height="156" rx="16" fill="#23324f"/>
  <rect x="382" y="74" width="86" height="124" rx="8" stroke="#fff8ef" stroke-opacity="0.68" stroke-width="3"/>
  <rect x="496" y="78" width="96" height="136" rx="14" fill="#7d3345"/>
  <rect x="512" y="96" width="64" height="100" rx="8" stroke="#fff8ef" stroke-opacity="0.7" stroke-width="3"/>
  <path d="M690 92C690 70 708 52 730 52H1002C1024 52 1042 70 1042 92V210H690V92Z" fill="#2f261f"/>
  <rect x="716" y="88" width="108" height="130" rx="12" fill="#405f8f"/>
  <rect x="842" y="88" width="106" height="130" rx="12" fill="#4a6b59"/>
  <rect x="966" y="88" width="52" height="130" rx="12" fill="#c89b3c"/>
  <circle cx="634" cy="76" r="26" fill="#ffe3ac"/>
  <rect y="228" width="1100" height="52" fill="url(#floor)"/>
  <text x="330" y="52" font-family="Georgia, serif" font-size="26" font-weight="700" fill="#2f261f">Digital Library Lobby</text>
  <text x="330" y="244" font-family="Arial, sans-serif" font-size="18" fill="#fff8ef">Project stacks upstairs · PDF reading lounge downstairs</text>
</svg>
